# xmcd
#
# Track frame offsets:
#	150
#	17622
#	37119
#	49945
#	62446
#	89805
#	101102
#	133469
#	146628
#	162606
#	178153
#	194958
#	208847
#	219600
#	239311
#	251675
#
# Disc length: 3495 seconds
#
# Revision: 1
# Processed by: cddbd v1.5.2PL0 Copyright (c) Steve Scherf et al.
# Submitted via: audiograbber 1.83.01
#
DISCID=0b0da510
DTITLE=Soul Brothers - CD1
DYEAR=1900
DGENRE=Soul
TTITLE0=Curtis Mayfield - Superfly
TTITLE1=Al Jarreau - Lean On Me
TTITLE2=Bob and Earl - Harlem Shuffle
TTITLE3=Percy Sledge - When A Man Loves A Woman
TTITLE4=Bobby Womack - Tell Me Why
TTITLE5=The Drifters - Saturday Night At The Movies
TTITLE6=The Temptations - Papa Was A Rolling Stone
TTITLE7=Ben E. King - Spanish Harlem
TTITLE8=Harold Melvin and The Blue Notes - If You Don't Know Me By Now
TTITLE9=Joe Tex - Ain't Gonna Bump No More (With No Big Fat Woman)
TTITLE10=Solomon Burke - Hold On, I'm Coming
TTITLE11=Aaron Neville - Tell It Like It Is
TTITLE12=Lee Dorsey - Ya Ya
TTITLE13=Lloyd Price - Personality
TTITLE14=King Curtis - Soul Twist
TTITLE15=James Brown - Papa's Got A Brand New Bag
EXTD=
EXTT0=
EXTT1=
EXTT2=
EXTT3=
EXTT4=
EXTT5=
EXTT6=
EXTT7=
EXTT8=
EXTT9=
EXTT10=
EXTT11=
EXTT12=
EXTT13=
EXTT14=
EXTT15=
PLAYORDER=
